<svg xmlns="http://www.w3.org/2000/svg" viewBox="0 0 1600 900" role="img" aria-label="Local Skill workflow from spreadsheet to reusable skill">
  <rect width="1600" height="900" fill="#050505"/>
  <g stroke="#fff" stroke-width="3" fill="none">
    <rect x="90" y="360" width="180" height="110"/>
    <rect x="340" y="360" width="180" height="110"/>
    <rect x="590" y="360" width="180" height="110"/>
    <rect x="840" y="360" width="180" height="110"/>
    <rect x="1090" y="360" width="180" height="110"/>
    <rect x="1340" y="330" width="180" height="170" stroke="#ff19d8"/>
    <path d="M270 415 H340 M520 415 H590 M770 415 H840 M1020 415 H1090 M1270 415 H1340"/>
  </g>
  <g font-family="monospace" font-size="23" fill="#fff" text-anchor="middle">
    <text x="180" y="423">table</text>
    <text x="430" y="423">clean</text>
    <text x="680" y="423">score</text>
    <text x="930" y="423">review</text>
    <text x="1180" y="410">poster</text><text x="1180" y="440">prompt</text>
    <text x="1430" y="405" fill="#ff19d8">reusable</text><text x="1430" y="438" fill="#ff19d8">skill</text>
  </g>
  <text x="115" y="160" fill="#fff" font-family="Arial Black, sans-serif" font-size="70">LOCAL WORKFLOW</text>
  <text x="118" y="215" fill="#ff19d8" font-family="monospace" font-size="24">human judgement -> project structure -> agent execution -> reuse</text>
  <g fill="#ff19d8">
    <rect x="1410" y="535" width="26" height="26"/>
    <rect x="1446" y="535" width="26" height="26"/>
    <rect x="1410" y="571" width="26" height="26"/>
    <rect x="1446" y="571" width="26" height="26"/>
  </g>
</svg>
